<svg xmlns="http://www.w3.org/2000/svg" version="1.1" xmlns:xlink="http://www.w3.org/1999/xlink" xmlns:svgjs="http://svgjs.dev/svgjs" width="100%" height="100%" viewBox="0 0 1000 600"><rect width="1000" height="600" x="0" y="0" fill="#f4a950"/><g><circle r="166.66666666666666" cx="341.66051737467444" cy="363.8827507568586" fill="#161b21" transform="matrix(0.7143107499589043,0,0,0.7143107499589043,0,40.07462596621815)"/><path d="M342.86431073433687 404.17126629980265L340.7005562166876 404.17126629980265Q337.5920638110506 404.17126629980265 335.39783387765976 402.9827250858826Q333.20360394426893 401.82465928770415 331.5884069099674 399.99613434321174Q330.0036852914073 398.1676093987193 328.87609490897034 395.9124286338454Q327.7485045265334 393.6572478689715 326.9866191329949 391.52396876706376L326.9866191329949 391.52396876706376L306.62904141764665 332.8283180488591L303.8557785851666 332.8283180488591L303.8557785851666 422.1822370030523Q303.8557785851666 425.59548356610475 303.429122764785 428.5820743087756Q303.00246694440347 431.59914046718796 301.5396469888096 433.91527206354493Q300.1073024489572 436.20092824416037 297.2730887849941 437.5418465367881Q294.43887512103095 438.88276482941586 289.50185777090155 438.88276482941586L289.50185777090155 438.88276482941586Q283.9248566901999 438.88276482941586 280.72493803733823 437.5418465367881Q277.4945439687351 436.20092824416037 275.8793469344335 433.91527206354493Q274.2946253158734 431.59914046718796 273.86796949549193 428.5820743087756Q273.4108382593688 425.59548356610475 273.4108382593688 422.1822370030523L273.4108382593688 422.1822370030523L273.4108382593688 313.3240519742739Q273.4108382593688 308.7222641973015 273.68511700104267 304.3033289147783Q273.95939574271654 299.9148690479966 275.45269111405196 296.5016224849443Q276.9459864853874 293.0579005061503 280.2373313854736 290.9855722357256Q283.49820086981833 288.8827685495594 289.50185777090155 288.8827685495594L289.50185777090155 288.8827685495594L304.06910649535735 288.8827685495594Q307.6956809686005 288.8827685495594 310.2251404751483 289.15704729123325Q312.75459998169606 289.4313260329071 314.8878790836038 290.9855722357256Q317.0211581855116 292.5398184385441 319.1239618716778 295.95306500159654Q321.19629014210244 299.39678698039046 323.7257496486502 305.644247207406Q326.255209155198 311.9221828501631 329.57702947102575 321.6133650559727Q332.89884978685353 331.30454726178215 337.71396547401673 345.44514016585634L337.71396547401673 345.44514016585634L340.48722830649683 354.03920740497045L343.07763864452767 354.03920740497045L346.49088520758005 343.3118610639486Q350.8793450743617 329.8112518904467 353.98783747999875 320.4857746735357Q357.0963298856357 311.1602974566247 359.4429368977343 305.12616513979987Q361.8200193255743 299.0615574072335 363.67901968580827 295.80068792288887Q365.5684954617837 292.5398184385441 367.64082373220833 290.9855722357256Q369.74362741837456 289.4313260329071 372.21213609343926 289.15704729123325Q374.68064476850395 288.8827685495594 378.2157929945225 288.8827685495594L378.2157929945225 288.8827685495594L393.84968126993215 288.8827685495594Q399.85333817101537 288.8827685495594 403.11420765536013 290.9855722357256Q406.3750771397048 293.0579005061503 407.89884792678174 296.5016224849443Q409.3921432981172 299.9148690479966 409.66642203979103 304.3033289147783Q409.91022536572336 308.7222641973015 409.91022536572336 313.3240519742739L409.91022536572336 313.3240519742739L409.91022536572336 422.1822370030523Q409.91022536572336 425.59548356610475 409.4835695453418 428.5820743087756Q409.0569137249603 431.59914046718796 407.4417166906587 433.91527206354493Q405.85699507209864 436.20092824416037 402.62660100349547 437.5418465367881Q399.4266823506339 438.88276482941586 393.84968126993215 438.88276482941586L393.84968126993215 438.88276482941586Q388.9126639198028 438.88276482941586 386.07845025583964 437.5418465367881Q383.2442365918765 436.20092824416037 381.7814166362826 433.91527206354493Q380.34907209643023 431.59914046718796 379.9224162760487 428.5820743087756Q379.4957604556671 425.59548356610475 379.4957604556671 422.1822370030523L379.4957604556671 422.1822370030523L379.4957604556671 332.8283180488591L376.4786942972547 332.8283180488591L356.36491990783884 391.52396876706376Q355.48113285133417 393.6572478689715 354.4144933003803 395.9124286338454Q353.3478537494264 398.1676093987193 351.73265671512485 399.99613434321174Q350.14793509656477 401.82465928770415 347.98418057891547 402.9827250858826Q345.85090147700777 404.17126629980265 342.86431073433687 404.17126629980265L342.86431073433687 404.17126629980265Z " fill="#f4a950" transform="matrix(0.7143107499589043,0,0,0.7143107499589043,0,40.07462596621815)"/><path d="M660.3326922611864 403.71804667102725L658.1932787896801 403.71804667102725Q655.1197552108962 403.71804667102725 652.950209155284 402.542875890904Q650.780663099672 401.3978376948865 649.1836361420685 399.5898826485431Q647.6167417685709 397.7819276021996 646.5018361566591 395.55211637837607Q645.3869305447473 393.32230515455245 644.6336159421043 391.21302426715175L644.6336159421043 391.21302426715175L624.5050497594807 333.1776672795274L621.7629846058597 333.1776672795274L621.7629846058597 421.52640387751006Q621.7629846058597 424.90125329735116 621.3411284283795 427.85424653971216Q620.9192722508994 430.83737236617884 619.4729082138247 433.1274487582138Q618.0566767608557 435.3873925661431 615.2543464390234 436.71322626679495Q612.4520161171911 438.0390599674468 607.5705374920637 438.0390599674468L607.5705374920637 438.0390599674468Q602.0562746007163 438.0390599674468 598.8923532696152 436.71322626679495Q595.6982993544085 435.3873925661431 594.1012723968051 433.1274487582138Q592.5343780233075 430.83737236617884 592.1125218458274 427.85424653971216Q591.6605330842415 424.90125329735116 591.6605330842415 421.52640387751006L591.6605330842415 421.52640387751006L591.6605330842415 313.892813451864Q591.6605330842415 309.3427932518997 591.931726341193 304.9735685565698Q592.2029195981445 300.6344764453455 593.679416219325 297.2596270255044Q595.1559128405055 293.85464502155764 598.4102319239237 291.8056293023684Q601.6344184232362 289.72648099907343 607.5705374920637 289.72648099907343L607.5705374920637 289.72648099907343L621.9739126945998 289.72648099907343Q625.5596902031809 289.72648099907343 628.0606946839561 289.99767425602494Q630.5616991647312 290.2688675129765 632.6709800521319 291.8056293023684Q634.7802609395326 293.3423910917603 636.8594092428275 296.7172405116014Q638.9084249620166 300.1222225155482 641.4094294427917 306.2994022572216Q643.9104339235669 312.50671458300076 647.1948855910907 322.088876328621Q650.4793372586147 331.67103807424115 655.2402855473191 345.6525570992971L655.2402855473191 345.6525570992971L657.98235070094 354.14994581711125L660.5436203499265 354.14994581711125L663.9184697697676 343.5432762118964Q668.2575618809918 330.1945414530607 671.3310854597757 320.9739707167092Q674.4046090385596 311.75339998035764 676.7248180147003 305.78714832742435Q679.0751595749468 299.7907640903852 680.9132472053959 296.56657759107276Q682.7814674199508 293.3423910917603 684.83048313914 291.8056293023684Q686.909631442435 290.2688675129765 689.3503707549986 289.99767425602494Q691.7911100675623 289.72648099907343 695.2864898238263 289.72648099907343L695.2864898238263 289.72648099907343L710.7445054700627 289.72648099907343Q716.6806245388902 289.72648099907343 719.9048110382028 291.8056293023684Q723.1289975375153 293.85464502155764 724.6356267428014 297.2596270255044Q726.1121233639819 300.6344764453455 726.3833166209333 304.9735685565698Q726.6243772937792 309.3427932518997 726.6243772937792 313.892813451864L726.6243772937792 313.892813451864L726.6243772937792 421.52640387751006Q726.6243772937792 424.90125329735116 726.2025211162991 427.85424653971216Q725.780664938819 430.83737236617884 724.1836379812155 433.1274487582138Q722.6167436077179 435.3873925661431 719.4226896925112 436.71322626679495Q716.2587683614101 438.0390599674468 710.7445054700627 438.0390599674468L710.7445054700627 438.0390599674468Q705.8630268449353 438.0390599674468 703.060696523103 436.71322626679495Q700.2583662012707 435.3873925661431 698.812002164196 433.1274487582138Q697.395770711227 430.83737236617884 696.9739145337468 427.85424653971216Q696.5520583562667 424.90125329735116 696.5520583562667 421.52640387751006L696.5520583562667 421.52640387751006L696.5520583562667 333.1776672795274L693.5689325298 333.1776672795274L673.6814270200222 391.21302426715175Q672.8075820809561 393.32230515455245 671.7529416372558 395.55211637837607Q670.6983011935555 397.7819276021996 669.1012742359521 399.5898826485431Q667.5343798624544 401.3978376948865 665.3949663909481 402.542875890904Q663.2856855035474 403.71804667102725 660.3326922611864 403.71804667102725L660.3326922611864 403.71804667102725ZM755.0394041054769 395.03986244857873L755.0394041054769 331.67103807424115Q755.0394041054769 321.5163572306122 757.9923973478378 314.3749347975557Q760.9453905901988 307.20337978039333 765.5556759583745 302.4424314916889Q770.1659613265504 297.68148320298457 775.7404893861093 294.96955063346945Q781.2848848615624 292.2576180639542 786.5279544959585 290.90165177919664Q791.7710241303545 289.5155529103333 796.0197184892615 289.21422706927615Q800.2684128481685 288.8827686441132 802.2872959832521 288.8827686441132L802.2872959832521 288.8827686441132L805.8730734918332 288.8827686441132Q807.8919566269168 288.8827686441132 812.1105184017181 289.21422706927615Q816.3592127606252 289.5155529103333 821.5420172268098 290.90165177919664Q826.7549542771 292.2576180639542 832.2993497525532 294.96955063346945Q837.8738778121121 297.68148320298457 842.363632843865 302.4424314916889Q846.8835204597236 307.20337978039333 849.7762485338731 314.3749347975557Q852.6991091921284 321.5163572306122 852.6991091921284 331.67103807424115L852.6991091921284 331.67103807424115L852.6991091921284 395.03986244857873Q852.6991091921284 405.52600171737066 849.7762485338731 412.81808707095587Q846.8835204597236 420.14030500864675 842.363632843865 425.0217836337741Q837.8738778121121 429.8731296747956 832.2993497525532 432.6754599966279Q826.7549542771 435.507922902566 821.5420172268098 436.86388918732365Q816.3592127606252 438.24998805618685 812.1105184017181 438.5814464813498Q807.8919566269168 438.8827723224071 805.8730734918332 438.8827723224071L805.8730734918332 438.8827723224071L802.2872959832521 438.8827723224071Q800.2684128481685 438.8827723224071 796.0197184892615 438.5814464813498Q791.7710241303545 438.24998805618685 786.5279544959585 436.86388918732365Q781.2848848615624 435.507922902566 775.7404893861093 432.6754599966279Q770.1659613265504 429.8731296747956 765.5556759583745 425.0217836337741Q760.9453905901988 420.14030500864675 757.9923973478378 412.81808707095587Q755.0394041054769 405.52600171737066 755.0394041054769 395.03986244857873L755.0394041054769 395.03986244857873ZM790.2041297568568 329.98361336432066L790.2041297568568 399.04749613463997Q790.4150578455968 402.9647320683841 791.9819522190945 405.94785789485076L791.9819522190945 405.94785789485076Q793.3680510879578 408.5995252961546 796.1703814097901 410.70880618355517Q799.0028443157282 412.81808707095587 804.1856487819127 412.81808707095587L804.1856487819127 412.81808707095587Q809.2780554957801 412.81808707095587 812.020120649401 410.70880618355517Q814.7621858030218 408.5995252961546 816.1482846718851 405.94785789485076L816.1482846718851 405.94785789485076Q817.6247812930656 402.9647320683841 817.9562397182285 399.04749613463997L817.9562397182285 399.04749613463997L817.9562397182285 329.98361336432066Q817.6247812930656 326.1567751828937 816.1482846718851 323.11338418821555L816.1482846718851 323.11338418821555Q814.7621858030218 320.5521145392291 812.020120649401 318.3825684836169Q809.2780554957801 316.21302242800476 804.1856487819127 316.21302242800476L804.1856487819127 316.21302242800476Q799.0028443157282 316.21302242800476 796.1703814097901 318.3825684836169Q793.3680510879578 320.5521145392291 791.9819522190945 323.11338418821555L791.9819522190945 323.11338418821555Q790.4150578455968 326.1567751828937 790.2041297568568 329.98361336432066L790.2041297568568 329.98361336432066ZM888.7075471984685 289.72648099907343L942.5243424112915 289.72648099907343Q946.7730367701986 289.72648099907343 951.0518637132113 290.0579394242364Q955.36082324033 290.35926526529363 958.856202996594 291.8357618864741Q962.3515827528579 293.3423910917603 964.5211288084699 296.35564950233265Q966.6906748640822 299.3689079129051 966.6906748640822 304.76264046782967L966.6906748640822 304.76264046782967Q966.6906748640822 310.0659752704371 964.5211288084699 313.0792336810095Q962.3515827528579 316.12262467568763 958.856202996594 317.5991212968681Q955.36082324033 319.0756179180486 951.0518637132113 319.4372089273173Q946.7730367701986 319.8289325206917 942.5243424112915 319.8289325206917L942.5243424112915 319.8289325206917L931.7368773014423 319.8289325206917L931.7368773014423 413.8727275146562Q931.7368773014423 418.45288029872626 931.4656840444908 422.79197240995046Q931.1944907875393 427.1310645211748 929.7179941663588 430.5059139410159Q928.2414975451784 433.91089594496265 924.9570458776544 435.9599116641519Q921.6725942101305 438.0390599674468 915.61594480488 438.0390599674468L915.61594480488 438.0390599674468Q909.5894279837352 438.0390599674468 906.3049763162113 435.9599116641519Q903.0205246486873 433.91089594496265 901.5440280275069 430.5059139410159Q900.0373988222207 427.1310645211748 899.7963381493748 422.79197240995046Q899.5251448924234 418.45288029872626 899.5251448924234 413.8727275146562L899.5251448924234 413.8727275146562L899.5251448924234 319.8289325206917L888.7075471984685 319.8289325206917Q884.4889854236671 319.8289325206917 880.1800258965486 319.4372089273173Q875.9011989535359 319.0756179180486 872.4058191972719 317.5991212968681Q868.9104394410078 316.12262467568763 866.7408933853957 313.0792336810095Q864.5713473297835 310.0659752704371 864.5713473297835 304.76264046782967L864.5713473297835 304.76264046782967Q864.5713473297835 299.3689079129051 866.7408933853957 296.35564950233265Q868.9104394410078 293.3423910917603 872.4058191972719 291.8357618864741Q875.9011989535359 290.35926526529363 880.1800258965486 290.0579394242364Q884.4889854236671 289.72648099907343 888.7075471984685 289.72648099907343L888.7075471984685 289.72648099907343ZM982.5705466877987 394.61800627109864L982.5705466877987 313.892813451864Q982.5705466877987 309.3427932518997 983.0526680334902 304.9735685565698Q983.5347893791818 300.6344764453455 985.2824792573139 297.2596270255044Q987.0301691354458 293.85464502155764 990.5255488917098 291.8056293023684Q994.0209286479737 289.72648099907343 1000.1679758055415 289.72648099907343L1000.1679758055415 289.72648099907343Q1006.3150229631092 289.72648099907343 1009.8405353034789 291.8056293023684Q1013.3961802279543 293.85464502155764 1015.1438701060863 297.2596270255044Q1016.8915599842182 300.6344764453455 1017.3134161616983 304.9735685565698Q1017.7352723391784 309.3427932518997 1017.7352723391784 313.892813451864L1017.7352723391784 313.892813451864L1017.7352723391784 397.3600714247195Q1018.0667307643416 402.03062196110665 1019.6637577219449 405.6163994696878L1019.6637577219449 405.6163994696878Q1020.296541988165 407.21342642729115 1021.3511824318655 408.6899230484717Q1022.4058228755657 410.16641966965216 1023.8220543285349 411.3415904497754Q1025.2684183656097 412.5167612298986 1027.2270363324815 413.2098106643303Q1029.1856542993537 413.8727275146562 1031.7167913642345 413.8727275146562L1031.7167913642345 413.8727275146562Q1034.278061013221 413.8727275146562 1036.2969441483046 413.2098106643303Q1038.2856946992822 412.5167612298986 1039.732058736357 411.3415904497754Q1041.1482901893262 410.16641966965216 1042.2029306330264 408.6899230484717Q1043.2877036608324 407.21342642729115 1043.9204879270528 405.6163994696878L1043.9204879270528 405.6163994696878Q1045.4873823005505 402.03062196110665 1045.6983103892903 397.3600714247195L1045.6983103892903 397.3600714247195L1045.6983103892903 313.892813451864Q1045.6983103892903 309.3427932518997 1046.1201665667704 304.9735685565698Q1046.5721553283565 300.6344764453455 1048.3198452064885 297.2596270255044Q1050.0675350846204 293.85464502155764 1053.5629148408843 291.8056293023684Q1057.0582945971482 289.72648099907343 1063.2957395070332 289.72648099907343L1063.2957395070332 289.72648099907343Q1069.4427866646008 289.72648099907343 1072.938166420865 291.8056293023684Q1076.4335461771288 293.85464502155764 1078.1812360552608 297.2596270255044Q1079.9289259333927 300.6344764453455 1080.4110472790844 304.9735685565698Q1080.893168624776 309.3427932518997 1080.893168624776 313.892813451864L1080.893168624776 313.892813451864L1080.893168624776 394.61800627109864Q1080.893168624776 405.6163994696878 1077.3375237003006 413.8727275146562Q1073.7818787758251 422.1591881437303 1067.2732406089888 427.70358361918346Q1060.7646024421524 433.2781116787424 1051.6946946263295 436.0804420005748Q1042.6247868105065 438.8827723224071 1031.7167913642345 438.8827723224071L1031.7167913642345 438.8827723224071Q1020.7183981656452 438.8827723224071 1011.7087555180337 435.9599116641519Q1002.6991128704223 433.06718359000234 996.1904747035859 427.43239036223196Q989.6818365367495 421.82772971856735 986.126191612274 413.5714016735989Q982.5705466877987 405.3150736286306 982.5705466877987 394.61800627109864L982.5705466877987 394.61800627109864ZM1158.846163706284 302.86428766916913L1192.5343927364834 394.1961500936184L1195.0655298013642 394.1961500936184L1195.0655298013642 306.2692696731159Q1195.0655298013642 302.86428766916913 1195.51751856295 299.85102925859667Q1195.9393747404301 296.8377708480243 1197.3556061933991 294.6079596242007Q1198.771837646368 292.3781484003771 1201.6043005523063 291.0523146997253Q1204.4066308741387 289.72648099907343 1209.2881094992658 289.72648099907343L1209.2881094992658 289.72648099907343Q1214.6818420541906 289.72648099907343 1217.815630801186 291.0523146997253Q1220.9192869640754 292.3781484003771 1222.5163139216788 294.6079596242007Q1224.113340879282 296.8377708480243 1224.5351970567622 299.85102925859667Q1224.9570532342425 302.86428766916913 1224.9570532342425 306.2692696731159L1224.9570532342425 306.2692696731159L1224.9570532342425 413.6617994259162Q1224.9570532342425 418.33234996230334 1224.6858599772909 422.67144207352754Q1224.4146667203393 427.01053418475186 1222.9984352673703 430.4757813569101Q1221.5520712302957 433.91089594496265 1218.327884730983 435.9599116641519Q1215.1036982316707 438.0390599674468 1209.2881094992658 438.0390599674468L1209.2881094992658 438.0390599674468L1195.2764578901042 438.0390599674468Q1190.3045815126598 438.0390599674468 1186.9598646769246 436.0804420005748Q1183.645280425295 434.1218240337027 1181.4154692014713 431.3194937118704Q1179.1856579776477 428.5171633900381 1177.8598242769958 425.4436398112542Q1176.533990576344 422.37011623247037 1175.8108085578065 420.230702760964L1175.8108085578065 420.230702760964L1143.8100042375277 333.5995234570076L1141.2788671726469 333.5995234570076L1141.2788671726469 421.52640387751006Q1141.2788671726469 424.90125329735116 1140.826878411061 427.9145117079236Q1140.405022233581 430.92777011849597 1138.988790780612 433.1575813423196Q1137.5424267435371 435.3873925661431 1134.7400964217047 436.71322626679495Q1131.9377660998725 438.0390599674468 1127.0562874747452 438.0390599674468L1127.0562874747452 438.0390599674468Q1121.5721571675035 438.0390599674468 1118.3781032522966 436.71322626679495Q1115.2141819211956 435.3873925661431 1113.6171549635924 433.1575813423196Q1112.0201280059887 430.92777011849597 1111.5982718285088 427.9145117079236Q1111.1764156510285 424.90125329735116 1111.1764156510285 421.52640387751006L1111.1764156510285 421.52640387751006L1111.1764156510285 314.1037415406041Q1111.1764156510285 309.5537213406398 1111.44760890798 305.1543640612041Q1111.7188021649317 300.75500678176843 1113.1952987861123 297.28975960961014Q1114.6717954072926 293.85464502155764 1117.895981906605 291.8056293023684Q1121.1503009900232 289.72648099907343 1127.0562874747452 289.72648099907343L1127.0562874747452 289.72648099907343L1141.0378064998013 289.72648099907343Q1146.3411413024085 289.72648099907343 1149.6858581381439 291.8056293023684Q1153.030574973879 293.85464502155764 1155.13985586128 296.29538433412125L1155.13985586128 296.29538433412125Q1157.4600648374208 299.15797982416507 1158.846163706284 302.86428766916913L1158.846163706284 302.86428766916913Z " fill="#161b21" transform="matrix(0.7143107499589043,0,0,0.7143107499589043,0,40.07462596621815)"/></g></svg>