<svg xmlns="http://www.w3.org/2000/svg" version="1.1" xmlns:xlink="http://www.w3.org/1999/xlink" xmlns:svgjs="http://svgjs.dev/svgjs" width="100%" height="100%" viewBox="0 0 1000 600"><rect width="1000" height="600" x="0" y="0" fill="#f4a950"/><g><circle r="166.66666666666666" cx="357.03432718912757" cy="379.2564853221561" fill="#161b21" transform="matrix(0.6566243207721174,0,0,0.6566243207721175,0,50.97096124739119)"/><path d="M295.8798057479001 304.2564854765539L335.0580463733221 304.2564854765539L357.33813890033457 376.1314852649942L405.2548054259615 304.2564854765539L444.63559234708356 304.2564854765539L418.1888331656687 454.256485035038L380.4573517952476 454.256485035038L395.47471286215597 369.67893898769063L363.385592586238 420.08403143191885L336.09971303692265 420.08403143191885L321.92147233791474 369.67893898769063L306.9330464561063 454.256485035038L269.4330465664853 454.256485035038L295.8798057479001 304.2564854765539Z " fill="#f4a950" transform="matrix(0.6566243207721174,0,0,0.6566243207721175,0,50.97096124739119)"/><path d="M632.7325391913524 305.6622961884266L670.8018936072705 305.6622961884266L692.4513787625561 375.50297297508854L739.0118299536642 305.6622961884266L777.2779978709939 305.6622961884266L751.5797778295249 451.41675209102544L714.9162341379761 451.41675209102544L729.5085494569283 369.2330571444019L698.3276675904195 418.21150278142494L671.8140773288163 418.21150278142494L658.0371322299981 369.2330571444019L643.4729331255331 451.41675209102544L607.0343191498835 451.41675209102544L632.7325391913524 305.6622961884266ZM859.0680658147941 304.2564854640574L859.0680658147941 304.2564854640574Q907.8496979504054 304.2564854640574 907.8496979504054 344.125277607168L907.8496979504054 344.125277607168Q907.8496979504054 350.8169366551654 906.4438872260362 358.4926632102212L906.4438872260362 358.4926632102212L899.3586011752153 398.9800120720542Q894.494496068898 427.12434277392566 878.2995565241647 440.67635815684474Q862.1046169794315 454.2564897542513 832.7512890546026 454.2564897542513Q803.3979611297736 454.2564897542513 791.8421969754588 440.67635815684474L791.8421969754588 440.67635815684474Q783.9696569189913 431.3698911615207 783.9696569189913 414.97813811537577L783.9696569189913 414.97813811537577Q783.9696569189913 407.6960385631433 785.5722811447721 398.9800120720542L785.5722811447721 398.9800120720542L792.657567195593 358.4926632102212Q802.1889639068162 304.2564854640574 859.0680658147941 304.2564854640574ZM838.2058346651551 422.87879438633064L838.2058346651551 422.87879438633064Q848.3276718806134 422.87879438633064 854.4007742098883 417.6210622771899Q860.4738765391633 412.33521395356166 862.9199871995656 398.16464185192007L862.9199871995656 398.16464185192007L869.7803435344873 359.30803343035535Q870.3989002532098 355.25929854417205 870.3989002532098 352.0259338781229L870.3989002532098 352.0259338781229Q870.3989002532098 335.634180831978 853.8103337056533 335.634180831978L853.8103337056533 335.634180831978Q832.9481025560143 336.0278078348014 828.8993676698309 359.30803343035535L828.8993676698309 359.30803343035535L822.0108951204219 398.16464185192007Q821.1955249002878 403.2255604596492 821.1955249002878 408.70822228468916L821.1955249002878 408.70822228468916Q821.1955249002878 422.87879438633064 838.2058346651551 422.87879438633064ZM1063.7259910684625 305.6622961884266L1058.0465157420108 337.2368050577589L1008.2526998848538 337.2368050577589L988.2058389553489 451.41675209102544L951.5704114782876 451.41675209102544L971.6172724077923 337.2368050577589L921.6266430492236 337.2368050577589L927.2780021611877 305.6622961884266L1063.7259910684625 305.6622961884266ZM1155.131804366948 440.78882301479433Q1139.0212134656772 454.2564897542513 1109.6678855408481 454.2564897542513Q1080.314557616019 454.2564897542513 1068.9837231776032 440.67635815684474L1068.9837231776032 440.67635815684474Q1060.8862534052369 431.3698911615207 1060.8862534052369 414.97813811537577L1060.8862534052369 414.97813811537577Q1060.8862534052369 407.6960385631433 1062.516993845505 398.9800120720542L1062.516993845505 398.9800120720542L1078.90874689165 305.6622961884266L1115.3473608672994 305.6622961884266L1098.955607821155 398.16464185192007Q1098.1402376010205 403.2255604596492 1098.1402376010205 408.70822228468916L1098.1402376010205 408.70822228468916Q1098.1402376010205 422.87879438633064 1115.150547365888 422.87879438633064L1115.150547365888 422.87879438633064Q1125.2723845813462 422.87879438633064 1131.3454869106213 417.6210622771899Q1137.418589239896 412.33521395356166 1139.836583685811 398.16464185192007L1139.836583685811 398.16464185192007L1156.228336731956 305.6622961884266L1192.6669507076058 305.6622961884266L1176.2751976614609 398.9800120720542Q1171.2142790537318 427.3211562753374 1155.131804366948 440.78882301479433ZM1296.1346200211788 305.6622961884266L1332.5732339968285 305.6622961884266L1307.0437112422837 451.41675209102544L1270.4082837652227 451.41675209102544L1244.9068772251653 371.65105159031697L1231.1299321263468 451.41675209102544L1194.4945046492858 451.41675209102544L1220.2208409052419 305.6622961884266L1257.868452103849 305.6622961884266L1282.9762316410834 380.17026457999435L1296.1346200211788 305.6622961884266Z " fill="#161b21" transform="matrix(0.6566243207721174,0,0,0.6566243207721175,0,50.97096124739119)"/></g></svg>